<svg width="59" height="72" viewBox="0 0 59 72" fill="none" xmlns="http://www.w3.org/2000/svg">
<path fill-rule="evenodd" clip-rule="evenodd" d="M58.34 21.2498C57.7735 20.5074 56.8861 20.0708 55.944 20.0712H17.274L14.799 12.7874H3.05798C1.40113 12.7874 0.0579834 14.1121 0.0579834 15.7463C0.0579834 17.3804 1.40113 18.7052 3.05798 18.7052H10.482L23.982 58.4383H49.141C50.7978 58.4383 52.141 57.1136 52.141 55.4794C52.141 53.8453 50.7978 52.5205 49.141 52.5205H28.299L26.573 47.4421H49.693C51.031 47.442 52.2074 46.5682 52.577 45.2998L58.827 23.8478C59.0866 22.9544 58.9063 21.9926 58.34 21.2498ZM50.559 30.7982H45.749V25.989H51.96L50.559 30.7982ZM32.942 25.989V30.7972H39.749V25.989H32.942ZM39.749 36.716V41.5243H32.942V36.716H39.749ZM26.942 30.7972V25.989H19.285L20.919 30.7972H26.942ZM22.929 36.716H26.942V41.5243H24.563L22.929 36.716ZM45.749 36.716V41.5243H47.434L48.835 36.716H45.749Z" fill="white"/>
<path d="M27.406 71.8767C30.5988 71.8767 33.187 69.3239 33.187 66.1749C33.187 63.0259 30.5988 60.4731 27.406 60.4731C24.2132 60.4731 21.625 63.0259 21.625 66.1749C21.625 69.3239 24.2132 71.8767 27.406 71.8767Z" fill="white"/>
<path d="M44.844 71.8767C48.0367 71.8767 50.625 69.3239 50.625 66.1749C50.625 63.0259 48.0367 60.4731 44.844 60.4731C41.6512 60.4731 39.063 63.0259 39.063 66.1749C39.063 69.3239 41.6512 71.8767 44.844 71.8767Z" fill="white"/>
<path d="M29.335 10.5524L36.882 15.9692C37.3178 16.2831 37.8644 16.4085 38.396 16.3166C38.9276 16.2247 39.3984 15.9234 39.7 15.482C40.346 14.5588 40.13 13.2805 39.22 12.6266L36.847 10.9243L46.283 5.904L50.911 17.7534H55.258L49.214 2.27737C49.007 1.74148 48.5792 1.31739 48.037 1.11057C47.4997 0.90812 46.8995 0.947393 46.394 1.21808L33.146 8.26718L30.124 6.0983C29.2551 5.47309 28.0396 5.64362 27.382 6.48296L18.901 17.133C18.7308 17.3149 18.5937 17.5245 18.496 17.7524H23.602L29.335 10.5524Z" fill="white"/>
</svg>
